<svg xmlns="http://www.w3.org/2000/svg" xml:space="preserve" width="60" height="60"><path fill="none" stroke="#818181" stroke-linecap="round" stroke-width="3" d="M47.084 26.517c2.275.418 4.001 2.234 4.001 4.393v12.555c0 2.467-2.25 4.483-5 4.483H25.252c-2.75 0-5-2.019-5-4.483V30.91c0-2.466 2.25-4.483 5-4.483h9.373"/><path fill="none" stroke="#818181" stroke-linecap="round" stroke-width="3" d="M12.351 35.846c-.935-.848-1.517-2.029-1.517-3.33v-13.03c0-2.559 2.25-4.653 5-4.653h20.833c2.75 0 5 2.094 5 4.653v13.028c0 2.56-2.25 4.652-5 4.652H26.375"/></svg>