<svg xmlns="http://www.w3.org/2000/svg" xml:space="preserve" width="287.755" height="352.464"><path fill="#3A6FA6" d="M14.378 305.56 240.851 79.086c62.539 62.539 62.539 163.935 0 226.473-62.539 62.54-163.934 62.54-226.473.001z"/><path fill="#F47A20" d="M273.379 46.904 46.904 273.377c-62.539-62.538-62.539-163.935 0-226.473 62.54-62.539 163.935-62.539 226.475 0z"/><path fill="none" stroke="#FFF" stroke-width="31.254" d="m94.652 226.504 97.007-102.223c-12.777-12.305-30.149-19.872-49.29-19.872-39.246 0-71.062 31.816-71.062 71.063 0 39.246 31.816 71.062 71.062 71.062s71.062-31.816 71.062-71.062"/></svg>